<svg width="36" height="36" viewBox="0 0 36 36" fill="none" xmlns="http://www.w3.org/2000/svg">
<path fill-rule="evenodd" clip-rule="evenodd" d="M10.8 10.8001V9.0001C10.8 6.01776 13.2177 3.6001 16.2 3.6001H19.8C22.7823 3.6001 25.2 6.01776 25.2 9.0001V10.8001H28.8C30.7882 10.8001 32.4 12.4119 32.4 14.4001V20.8275C27.9174 22.4906 23.0668 23.4 18 23.4C12.9333 23.4 8.08266 22.4906 3.6 20.8274V14.4001C3.6 12.4119 5.21177 10.8001 7.2 10.8001H10.8ZM14.4 9.0001C14.4 8.00599 15.2059 7.2001 16.2 7.2001H19.8C20.7941 7.2001 21.6 8.00599 21.6 9.0001V10.8001H14.4V9.0001ZM16.2 18.0001C16.2 17.006 17.0059 16.2001 18 16.2001H18.018C19.0121 16.2001 19.818 17.006 19.818 18.0001C19.818 18.9942 19.0121 19.8001 18.018 19.8001H18C17.0059 19.8001 16.2 18.9942 16.2 18.0001Z" fill="white"/>
<path d="M3.6 24.6462V28.8001C3.6 30.7883 5.21177 32.4001 7.2 32.4001H28.8C30.7882 32.4001 32.4 30.7883 32.4 28.8001V24.6462C27.877 26.1729 23.0335 27 18 27C12.9665 27 8.12303 26.1729 3.6 24.6462Z" fill="white"/>
</svg>
