<svg width="36" height="32" viewBox="0 0 36 32" fill="none" xmlns="http://www.w3.org/2000/svg">
<path fill-rule="evenodd" clip-rule="evenodd" d="M32.0312 0.299988H4.61878C2.51607 0.299988 0.811493 1.94159 0.811493 3.96661V20.0998C0.811493 21.0722 1.21262 22.0048 1.92662 22.6925C2.64063 23.3801 3.60902 23.7664 4.61878 23.7664H11.8679L17.7311 30.8246C17.8756 30.9987 18.0944 31.1 18.3258 31.1C18.5571 31.1 18.776 30.9987 18.9205 30.8246L24.7822 23.7664H32.0312C34.1339 23.7664 35.8385 22.1248 35.8385 20.0998V3.96661C35.8385 1.94159 34.1339 0.299988 32.0312 0.299988ZM19.9303 15.7H9.71407C9.31106 15.7 8.98434 15.4537 8.98434 15.15C8.98434 14.8462 9.31106 14.6 9.71407 14.6H19.9303C20.3333 14.6 20.66 14.8462 20.66 15.15C20.66 15.4537 20.3333 15.7 19.9303 15.7ZM9.74775 9.09999H28.0696C28.4912 9.09999 28.833 8.85375 28.833 8.54999C28.833 8.24623 28.4912 7.99999 28.0696 7.99999H9.74775C9.32613 7.99999 8.98434 8.24623 8.98434 8.54999C8.98434 8.85375 9.32613 9.09999 9.74775 9.09999Z" fill="#F04037"/>
</svg>
