<svg width="36" height="36" viewBox="0 0 36 36" fill="none" xmlns="http://www.w3.org/2000/svg">
<path fill-rule="evenodd" clip-rule="evenodd" d="M18 32.4001C25.9529 32.4001 32.4 25.953 32.4 18.0001C32.4 10.0472 25.9529 3.6001 18 3.6001C10.0471 3.6001 3.6 10.0472 3.6 18.0001C3.6 25.953 10.0471 32.4001 18 32.4001ZM24.6728 15.6729C25.3757 14.9699 25.3757 13.8302 24.6728 13.1273C23.9698 12.4244 22.8302 12.4244 22.1272 13.1273L16.2 19.0545L13.8728 16.7273C13.1698 16.0244 12.0302 16.0244 11.3272 16.7273C10.6243 17.4302 10.6243 18.5699 11.3272 19.2729L14.9272 22.8729C15.6301 23.5758 16.7698 23.5758 17.4728 22.8729L24.6728 15.6729Z" fill="white"/>
</svg>
