<svg width="24" height="24" viewBox="0 0 24 24" fill="none" xmlns="http://www.w3.org/2000/svg">
<path d="M16.1892 2H7.80921C4.16921 2 1.99921 4.17 1.99921 7.81V16.18C1.99921 19.83 4.16921 22 7.80921 22H16.1792C19.8192 22 21.9892 19.83 21.9892 16.19V7.81C21.9992 4.17 19.8292 2 16.1892 2ZM9.93921 13.27C9.25921 14.29 8.31921 15.12 7.21921 15.67C7.11921 15.72 6.99921 15.75 6.88921 15.75C6.60921 15.75 6.34921 15.6 6.21921 15.34C6.02921 14.97 6.17921 14.52 6.55921 14.33C7.42921 13.9 8.16921 13.24 8.69921 12.44C8.87921 12.17 8.87921 11.83 8.69921 11.56C8.15921 10.76 7.41921 10.1 6.55921 9.67C6.17921 9.49 6.02921 9.04 6.21921 8.66C6.39921 8.29 6.84921 8.14 7.21921 8.33C8.31921 8.88 9.25921 9.71 9.93921 10.73C10.4592 11.5 10.4592 12.5 9.93921 13.27ZM16.9992 15.75H12.9992C12.5892 15.75 12.2492 15.41 12.2492 15C12.2492 14.59 12.5892 14.25 12.9992 14.25H16.9992C17.4092 14.25 17.7492 14.59 17.7492 15C17.7492 15.41 17.4092 15.75 16.9992 15.75Z" fill="#236BFE"/>
</svg>
