<svg width="41" height="19" viewBox="0 0 41 19" fill="none" xmlns="http://www.w3.org/2000/svg">
<path d="M32.7586 3.91456C29.9349 3.91456 25.2282 7.12174 20.2461 10.5177C15.8717 13.4996 10.913 16.8794 8.59499 16.8794C5.26473 16.8794 2.55409 14.3343 2.55409 11.2073C2.55409 8.08033 5.26473 5.53517 8.59499 5.53517C9.17836 5.53517 9.96799 5.74342 10.9147 6.12507L8.74342 9.85328C8.58118 10.1304 8.60707 10.4707 8.80728 10.7244C8.97125 10.9334 9.23014 11.0517 9.50026 11.0517C9.55808 11.0517 9.61849 11.046 9.67717 11.0347L17.4009 9.51862C17.646 9.47 17.8574 9.32496 17.9791 9.11833C18.1008 8.9117 18.1206 8.66618 18.0335 8.44578L15.2779 1.43017C15.1606 1.13198 14.8689 0.925353 14.5315 0.902664C14.2001 0.876735 13.873 1.04366 13.7116 1.3224L11.7432 4.70299C10.4944 4.18682 9.43553 3.91456 8.59499 3.91456C4.31199 3.91456 0.828125 7.18576 0.828125 11.2073C0.828125 15.2288 4.31199 18.5 8.59499 18.5C11.473 18.5 16.2272 15.2596 21.2602 11.8296C25.588 8.87929 30.4949 5.53517 32.7586 5.53517C36.0888 5.53517 38.7994 8.08033 38.7994 11.2073C38.7994 14.3343 36.0888 16.8794 32.7586 16.8794C31.3916 16.8794 28.9079 15.7766 25.7649 13.7735C25.3714 13.5207 24.8346 13.6196 24.5662 13.9891C24.2979 14.3594 24.4014 14.8634 24.7958 15.1146C28.3202 17.3607 30.9998 18.5 32.7586 18.5C37.0415 18.5 40.5254 15.2288 40.5254 11.2073C40.5254 7.18576 37.0415 3.91456 32.7586 3.91456Z" fill="#5454D4"/>
</svg>
