<svg width="36" height="36" viewBox="0 0 36 36" fill="none" xmlns="http://www.w3.org/2000/svg">
<path fill-rule="evenodd" clip-rule="evenodd" d="M7.2 7.2001C7.2 5.21187 8.81178 3.6001 10.8 3.6001H25.2C27.1882 3.6001 28.8 5.21187 28.8 7.2001V28.8001C29.7941 28.8001 30.6 29.606 30.6 30.6001C30.6 31.5942 29.7941 32.4001 28.8 32.4001H22.6C22.0477 32.4001 21.6 31.9524 21.6 31.4001V27.0001C21.6 26.006 20.7941 25.2001 19.8 25.2001H16.2C15.2059 25.2001 14.4 26.006 14.4 27.0001V31.4001C14.4 31.9524 13.9523 32.4001 13.4 32.4001H7.2C6.20589 32.4001 5.4 31.5942 5.4 30.6001C5.4 29.606 6.20589 28.8001 7.2 28.8001V7.2001ZM12.6 9.0001H16.2V12.6001H12.6V9.0001ZM16.2 16.2001H12.6V19.8001H16.2V16.2001ZM19.8 9.0001H23.4V12.6001H19.8V9.0001ZM23.4 16.2001H19.8V19.8001H23.4V16.2001Z" fill="white"/>
</svg>
