<svg width="41" height="31" viewBox="0 0 41 31" fill="none" xmlns="http://www.w3.org/2000/svg">
<path d="M21.4927 30.9H2.99848C1.60565 30.9 0.476532 29.8113 0.476532 28.4684V2.53155C0.476532 1.18863 1.60565 0.0999756 2.99848 0.0999756H21.4927V1.72103H2.99848C2.5342 1.72103 2.15783 2.08391 2.15783 2.53155V28.4684C2.15783 28.916 2.5342 29.2789 2.99848 29.2789H21.4927V30.9Z" fill="#5454D4"/>
<path fill-rule="evenodd" clip-rule="evenodd" d="M23.828 0.0999756H37.593C39.0184 0.0999756 40.1739 1.18863 40.1739 2.53155V28.4684C40.1739 29.8113 39.0184 30.9 37.593 30.9H23.828V0.0999756ZM28.99 22.7947H35.0122C35.4874 22.7947 35.8725 22.4318 35.8725 21.9842C35.8725 21.5365 35.4874 21.1737 35.0122 21.1737H28.99C28.5149 21.1737 28.1297 21.5365 28.1297 21.9842C28.1297 22.4318 28.5149 22.7947 28.99 22.7947ZM35.0122 16.3105H28.99C28.5149 16.3105 28.1297 15.9476 28.1297 15.5C28.1297 15.0523 28.5149 14.6894 28.99 14.6894H35.0122C35.4874 14.6894 35.8725 15.0523 35.8725 15.5C35.8725 15.9476 35.4874 16.3105 35.0122 16.3105ZM28.99 9.82627H35.0122C35.4874 9.82627 35.8725 9.46339 35.8725 9.01574C35.8725 8.5681 35.4874 8.20522 35.0122 8.20522H28.99C28.5149 8.20522 28.1297 8.5681 28.1297 9.01574C28.1297 9.46339 28.5149 9.82627 28.99 9.82627Z" fill="#5454D4"/>
</svg>
